<svg width="270" height="270" viewBox="0 0 270 270" fill="none" xmlns="http://www.w3.org/2000/svg">
<g clip-path="url(#clip0_210_2)">
<path d="M236.25 0H33.75C15.1104 0 0 15.1104 0 33.75V236.25C0 254.89 15.1104 270 33.75 270H236.25C254.89 270 270 254.89 270 236.25V33.75C270 15.1104 254.89 0 236.25 0Z" fill="#0A82F5"/>
<path d="M64 56H140.275C185.95 56 206.425 82.1 206.425 122.375V147.125C206.425 187.4 185.95 213.5 140.275 213.5H64V56ZM113.05 173.9H133.75C150.4 173.9 157.15 164.225 157.15 148.25V121.25C157.15 105.275 150.4 95.6 133.75 95.6H113.05V173.9Z" fill="white"/>
</g>
<defs>
<clipPath id="clip0_210_2">
<rect width="270" height="270" fill="white"/>
</clipPath>
</defs>
</svg>
